<!DOCTYPE svg>
<svg version="1.0" xmlns="http://www.w3.org/2000/svg" width="340px" viewBox="0 0 7580 4410" preserveAspectRatio="xMidYMid meet">
<g id="layer101" fill="#0ba39c" stroke="none" >
 <path d="M0 2205 l0 -2205 3790 0 3790 0 0 2205 0 2205 -3790 0 -3790 0 0 -2205z"/>
 </g>
<g id="layer102" fill="white" stroke="none">
 <path d="M0 2205 l0 -2205 3790 0 3790 0 0 2205 0 2205 -3790 0 -3790 0 0 -2205z m1912 1995 c97 -28 185 -126 207 -232 6 -27 11 -156 11 -288 l0 -238 26 -31 c14 -17 33 -31 43 -31 23 0 41 -19 34 -36 -8 -22 -288 -20 -297 1 -4 12 7 21 38 35 70 30 71 33 70 315 -1 238 -2 253 -24 303 -41 95 -121 138 -241 130 -89 -7 -141 -40 -178 -113 -26 -49 -26 -54 -29 -304 -2 -173 0 -263 8 -281 11 -26 31 -40 73 -54 9 -3 17 -15 17 -26 0 -20 -4 -20 -177 -18 -156 3 -178 5 -181 20 -2 11 8 20 33 28 65 21 70 40 67 244 -4 231 8 348 42 414 27 54 86 110 145 138 85 42 217 52 313 24z m2226 -3 c20 -15 14 -25 -21 -36 -41 -14 -77 -51 -201 -208 -95 -121 -139 -163 -170 -163 -9 0 -16 -4 -16 -10 0 -5 9 -10 20 -10 12 0 43 -11 69 -25 74 -37 111 -101 111 -188 -1 -94 -43 -157 -135 -199 -47 -22 -63 -23 -307 -26 -254 -3 -258 -3 -258 17 0 13 8 23 24 27 13 3 37 19 52 35 l29 30 3 299 c2 190 -1 313 -8 338 -10 40 -38 66 -75 74 -12 2 -20 11 -20 23 0 19 7 20 195 20 174 0 195 -2 198 -17 2 -12 -11 -20 -52 -32 -84 -25 -91 -41 -91 -206 l0 -135 45 3 c102 7 115 18 277 227 56 72 115 138 133 148 55 33 164 41 198 14z m2914 12 c183 -39 292 -197 229 -335 -24 -53 -79 -99 -228 -190 -134 -82 -183 -129 -183 -174 0 -81 46 -114 151 -108 58 3 75 9 121 41 30 20 62 37 70 37 22 0 51 -86 38 -111 -7 -11 -38 -27 -81 -40 -157 -48 -329 12 -388 134 -25 52 -28 144 -6 186 22 44 96 104 234 191 152 95 176 118 176 169 0 75 -58 121 -152 121 -69 0 -113 -15 -182 -61 -34 -23 -67 -39 -75 -36 -7 3 -19 26 -26 51 -10 38 -10 49 1 63 28 34 131 66 226 72 12 0 46 -4 75 -10z m-6463 -23 c14 -16 0 -30 -42 -40 -39 -9 -50 -44 -32 -102 25 -84 25 -84 216 -84 188 0 186 -1 214 74 24 62 17 87 -28 111 -22 12 -36 26 -35 35 5 22 353 23 353 0 0 -8 -16 -23 -37 -32 -20 -10 -45 -30 -56 -45 -10 -15 -90 -194 -177 -398 -87 -203 -162 -375 -167 -382 -5 -6 -15 -10 -21 -8 -7 2 -24 6 -38 9 -22 5 -28 14 -38 58 -13 61 -37 121 -180 448 -110 251 -134 292 -187 317 -32 16 -42 32 -27 46 3 4 66 7 138 7 100 0 135 -3 144 -14z m2358 -2 c7 -20 -8 -30 -59 -38 -22 -4 -50 -17 -64 -31 l-24 -24 0 -329 c0 -242 3 -331 12 -340 17 -17 141 -15 183 3 20 8 44 29 56 50 21 36 33 43 44 25 5 -9 45 -157 45 -169 0 -3 -178 -6 -395 -6 -388 0 -396 0 -400 20 -30 144 -31 165 -11 165 7 0 26 -16 40 -35 33 -42 101 -65 197 -65 61 0 67 2 73 23 3 12 6 162 6 332 0 265 -2 314 -16 333 -17 25 -64 52 -91 52 -28 0 -47 16 -40 34 6 14 34 16 222 16 188 0 216 -2 222 -16z m1924 -9 c46 -42 86 -163 59 -180 -6 -4 -35 16 -65 43 -71 65 -132 87 -245 87 -66 0 -92 -4 -113 -18 l-27 -17 0 -150 0 -150 58 0 c75 0 123 14 152 45 13 14 27 25 32 25 10 0 88 -165 88 -186 0 -18 0 -18 -56 13 -44 25 -61 28 -161 31 l-113 4 0 -140 c0 -183 6 -190 160 -179 88 6 129 23 150 64 17 31 30 44 41 37 12 -7 39 -108 39 -143 l0 -31 -325 0 c-314 0 -325 1 -325 19 0 13 11 23 34 31 73 24 71 14 71 382 l0 330 -28 23 c-15 13 -43 27 -62 31 -27 5 -35 11 -35 28 l0 21 324 0 c308 -1 326 -2 347 -20z m447 2 c3 -12 -6 -21 -28 -28 -55 -20 -63 -50 -56 -233 4 -88 9 -190 12 -225 l6 -64 42 79 c23 43 89 168 146 277 102 193 105 197 136 197 35 0 44 -9 63 -63 27 -81 228 -479 234 -464 3 8 9 114 13 234 l7 219 -28 22 c-15 12 -34 22 -42 22 -9 0 -13 8 -11 23 3 22 5 22 168 22 156 0 165 -1 165 -19 0 -13 -11 -23 -35 -31 -59 -20 -61 -32 -86 -445 -12 -206 -22 -376 -23 -377 0 -2 -12 -3 -26 -3 -23 0 -40 30 -196 342 l-171 341 -87 -164 c-305 -572 -274 -519 -306 -519 -26 0 -24 -17 -51 465 -18 319 -22 341 -82 360 -39 13 -46 20 -38 40 5 13 25 15 138 13 118 -3 133 -5 136 -21z m1291 9 c13 -15 1 -29 -36 -40 -12 -4 -32 -19 -43 -33 -19 -25 -20 -39 -20 -355 l0 -329 25 -24 c13 -14 33 -25 43 -25 25 0 43 -22 33 -38 -6 -9 -51 -12 -182 -10 -146 3 -174 5 -177 18 -1 10 13 23 40 35 24 11 49 31 55 45 9 18 13 109 13 335 0 292 -1 312 -20 343 -13 21 -31 35 -50 39 -34 6 -44 17 -36 38 8 21 338 22 355 1z m-3883 -1309 c13 -15 29 -45 35 -67 l12 -40 1036 0 1036 0 18 51 c32 89 34 90 369 87 273 -3 288 -4 315 -24 15 -12 37 -36 48 -55 19 -32 21 -61 29 -424 5 -214 9 -473 10 -575 1 -177 0 -188 -25 -245 -14 -33 -57 -107 -95 -165 -83 -125 -194 -306 -194 -317 0 -5 37 -18 83 -31 45 -13 113 -32 150 -43 l68 -20 -3 -87 -3 -86 -85 -28 c-139 -44 -214 -35 -285 37 l-43 43 -19 -42 c-28 -64 -179 -313 -234 -387 -59 -80 -138 -156 -182 -173 -17 -8 -84 -17 -147 -20 -63 -4 -221 -16 -350 -27 -377 -31 -491 -33 -725 -14 -115 9 -313 24 -440 34 -164 12 -239 22 -260 33 -81 43 -215 218 -341 443 -43 77 -79 142 -81 144 -2 3 -20 -12 -41 -32 -46 -45 -98 -67 -157 -67 -46 0 -188 41 -212 62 -17 14 -18 152 0 166 10 8 96 34 252 75 22 5 42 11 43 13 6 5 -78 145 -171 284 -50 74 -100 157 -113 185 -34 76 -48 187 -39 318 4 61 10 292 13 512 7 426 8 431 59 477 38 34 66 37 356 35 l289 -2 24 -28z"/>
 <path d="M3482 3591 c5 -169 12 -185 75 -197 47 -9 123 12 156 44 45 42 60 81 61 150 0 111 -44 145 -198 150 l-99 4 5 -151z"/>
 <path d="M590 3875 c0 -20 133 -335 141 -335 6 0 127 275 143 328 7 22 7 22 -138 22 -123 0 -146 -2 -146 -15z"/>
 <path d="M5193 2852 l-242 -2 -20 -27 c-32 -40 -28 -56 13 -49 78 15 216 22 281 15 129 -14 222 -56 293 -133 23 -25 43 -46 45 -46 6 0 6 61 1 118 -7 77 -32 111 -89 120 -22 4 -149 6 -282 4z"/>
 <path d="M2093 2826 c-27 -23 -28 -29 -31 -128 l-3 -103 25 36 c31 45 128 111 198 136 42 14 83 18 193 18 77 0 161 -3 188 -7 41 -7 47 -5 47 10 0 10 -7 28 -16 40 -15 22 -17 22 -294 22 l-279 0 -28 -24z"/>
 <path d="M2380 2734 c-54 -10 -147 -48 -187 -77 -88 -63 -123 -146 -123 -295 0 -52 -7 -169 -16 -261 -10 -101 -14 -221 -12 -306 5 -167 15 -196 110 -337 l65 -98 12 61 c7 34 11 63 9 65 -3 2 -19 -1 -37 -6 -39 -11 -58 4 -96 80 -46 92 -30 215 38 280 23 22 53 30 278 67 l251 42 39 -26 c37 -25 44 -26 130 -20 l91 6 54 51 c61 58 135 95 219 111 35 6 142 9 259 7 172 -3 206 -6 236 -22 46 -24 78 -54 97 -90 l15 -28 18 29 c27 45 87 90 136 102 57 14 398 14 466 0 84 -18 148 -52 212 -110 l59 -54 89 -4 c82 -3 92 -1 126 22 l37 26 255 -42 254 -42 33 -43 c40 -53 57 -112 50 -174 -7 -53 -38 -120 -72 -154 -20 -20 -28 -22 -57 -14 -42 13 -41 13 -33 -7 4 -10 10 -40 14 -67 l6 -49 72 107 c40 59 80 131 88 159 25 82 29 234 11 418 -9 92 -16 209 -16 260 0 110 -15 209 -36 251 -29 55 -93 115 -153 142 -135 60 -289 57 -586 -12 l-160 -37 -798 -2 -797 -3 -98 24 c-215 54 -466 86 -552 70z m213 -56 c48 -25 177 -130 177 -143 0 -8 -13 -48 -30 -90 -36 -90 -36 -102 -9 -131 12 -13 19 -29 16 -37 -8 -22 -399 -127 -474 -127 -133 0 -193 96 -159 257 26 126 75 191 181 239 84 39 252 57 298 32z m2700 -18 c90 -28 164 -97 197 -185 31 -81 34 -205 5 -253 -25 -41 -88 -72 -146 -72 -40 0 -180 33 -386 90 -91 25 -103 42 -63 85 19 21 19 21 -15 112 -19 51 -32 98 -30 105 3 7 47 44 98 82 l92 69 90 -6 c50 -3 121 -16 158 -27z m-661 -72 c34 -28 208 -259 208 -277 0 -10 -7 -22 -16 -25 -21 -8 -1937 -7 -1986 1 -26 4 -38 11 -38 22 0 15 79 108 202 239 l50 52 782 0 c611 0 786 -3 798 -12z"/>
 <path d="M2372 2614 c-66 -17 -84 -27 -133 -71 -46 -42 -79 -133 -79 -220 0 -47 4 -59 29 -84 42 -42 105 -39 300 12 86 23 159 43 163 45 4 3 3 13 -3 22 -8 13 -2 38 24 106 19 50 33 95 31 100 -3 6 -34 32 -71 59 -64 46 -68 47 -137 46 -39 0 -95 -7 -124 -15z"/>
 <path d="M4988 2581 c-38 -29 -68 -57 -68 -64 0 -7 14 -51 31 -98 24 -66 28 -88 20 -102 -14 -21 -28 -16 169 -67 165 -43 234 -49 279 -25 32 16 41 39 41 111 0 86 -26 153 -79 205 -60 58 -119 79 -236 86 l-90 5 -67 -51z"/>
 <path d="M2980 2440 l-92 -100 937 0 936 0 -26 33 c-14 17 -49 62 -78 99 l-52 67 -766 1 -766 0 -93 -100z"/>
 <path d="M2995 2707 c32 -19 1554 -22 1615 -3 40 12 -55 14 -795 15 -665 0 -836 -2 -820 -12z"/>
 <path d="M3159 2001 c-66 -21 -136 -68 -176 -120 -53 -66 -104 -157 -98 -173 17 -45 125 -58 478 -58 337 0 341 1 379 73 31 59 33 183 2 223 -50 68 -53 69 -302 71 -197 2 -235 0 -283 -16z"/>
 <path d="M3935 1996 c-57 -34 -77 -75 -77 -150 0 -69 25 -138 62 -171 21 -19 39 -20 328 -23 377 -4 482 10 490 64 4 27 -83 159 -138 208 -23 21 -68 50 -99 65 -55 25 -61 26 -291 29 -234 3 -235 2 -275 -22z"/>
 <path d="M2418 1851 c-122 -21 -224 -44 -234 -52 -25 -21 -54 -89 -54 -129 0 -42 33 -118 54 -126 9 -3 141 24 293 61 388 92 353 81 353 112 0 15 14 50 30 80 l30 53 -91 0 c-76 0 -95 3 -116 20 -14 11 -31 19 -37 19 -6 -1 -109 -18 -228 -38z"/>
 <path d="M4940 1870 c-21 -16 -40 -20 -112 -20 -49 0 -88 -2 -88 -5 0 -3 12 -24 26 -46 14 -23 28 -56 31 -75 3 -19 13 -36 22 -38 56 -17 597 -146 612 -146 12 0 26 15 39 40 37 73 19 192 -34 225 -12 7 -111 27 -221 45 -110 17 -211 34 -225 36 -15 3 -35 -3 -50 -16z"/>
 <path d="M3791 1697 c-13 -26 -37 -57 -54 -69 -32 -23 -34 -23 -402 -23 -329 0 -376 2 -421 18 l-51 18 -273 -67 -272 -66 -19 -42 c-39 -87 -20 -203 57 -332 25 -42 75 -135 111 -208 132 -264 286 -498 371 -563 47 -36 35 -34 372 -58 124 -8 284 -20 355 -26 166 -14 465 -6 760 20 127 12 262 21 300 21 106 0 134 12 203 83 90 95 286 407 362 581 12 25 45 88 75 139 29 51 58 113 65 137 27 98 8 225 -37 248 -10 5 -134 37 -276 72 l-258 62 -42 -19 c-38 -16 -79 -18 -401 -21 -198 -2 -370 -1 -382 2 -36 9 -85 57 -103 100 l-17 40 -23 -47z m1335 -671 c3 -8 -50 -115 -117 -237 -68 -123 -144 -262 -169 -309 l-47 -85 -976 -3 -977 -2 -34 52 c-18 29 -73 121 -121 203 -49 83 -117 198 -151 258 -36 60 -61 114 -58 122 5 13 163 15 1325 15 1121 0 1320 -2 1325 -14z"/>
 <path d="M2553 983 c2 -5 75 -128 162 -275 l158 -268 937 0 c738 0 940 3 947 13 13 16 293 525 293 532 0 3 -563 5 -1251 5 -687 0 -1248 -3 -1246 -7z"/>
 <path d="M2182 1003 l-123 -36 3 -45 c3 -45 4 -46 53 -63 69 -24 162 -24 199 0 33 22 66 68 66 93 0 35 -33 88 -54 87 -12 0 -76 -17 -144 -36z"/>
 <path d="M5258 996 c-21 -44 -21 -44 -1 -77 46 -79 131 -99 251 -58 l62 21 0 42 0 42 -132 37 c-73 21 -139 37 -146 37 -7 0 -22 -20 -34 -44z"/>
 </g>

</svg>
